<svg width="41" height="41" viewBox="0 0 41 41" fill="none" xmlns="http://www.w3.org/2000/svg">
<rect y="2" width="39" height="39" rx="10" fill="#6B36F7"/>
<path d="M4.98 21.2C4.98 19.2773 5.40933 17.56 6.268 16.048C7.14533 14.5173 8.33067 13.332 9.824 12.492C11.336 11.6333 13.0253 11.204 14.892 11.204C17.076 11.204 18.9893 11.764 20.632 12.884C22.2747 14.004 23.4227 15.5533 24.076 17.532H19.568C19.12 16.5987 18.4853 15.8987 17.664 15.432C16.8613 14.9653 15.928 14.732 14.864 14.732C13.7253 14.732 12.708 15.0027 11.812 15.544C10.9347 16.0667 10.244 16.8133 9.74 17.784C9.25467 18.7547 9.012 19.8933 9.012 21.2C9.012 22.488 9.25467 23.6267 9.74 24.616C10.244 25.5867 10.9347 26.3427 11.812 26.884C12.708 27.4067 13.7253 27.668 14.864 27.668C15.928 27.668 16.8613 27.4347 17.664 26.968C18.4853 26.4827 19.12 25.7733 19.568 24.84H24.076C23.4227 26.8373 22.2747 28.396 20.632 29.516C19.008 30.6173 17.0947 31.168 14.892 31.168C13.0253 31.168 11.336 30.748 9.824 29.908C8.33067 29.0493 7.14533 27.864 6.268 26.352C5.40933 24.84 4.98 23.1227 4.98 21.2ZM31.3442 11.456V31H27.4242V11.456H31.3442Z" fill="white"/>
</svg>
