<svg width="424" height="279" viewBox="0 0 424 279" fill="none" xmlns="http://www.w3.org/2000/svg">
<g filter="url(#filter0_d)">
<rect x="4" width="416" height="271" rx="10" fill="#FCFCFC"/>
</g>
<path d="M253 51C240.925 51 233.697 52.6985 229.103 54.8162C226.803 55.8778 225.17 56.9924 224.072 58.1335C222.968 59.2747 222.272 60.9519 222.272 60.9519C222.092 61.3782 221.972 61.8242 221.915 62.2788L218.856 98.6047C218.816 98.8276 218.897 99.1885 218.856 99.4327L218.5 103.084C218.467 103.415 218.467 103.747 218.5 104.077C218.5 121.592 234.025 135.923 253 135.923C271.975 135.923 287.5 121.592 287.5 104.077V103.249C287.501 103.194 287.501 103.139 287.5 103.084L284.085 62.2788C284.028 61.8242 283.908 61.3782 283.728 60.9519C283.728 60.9519 283.032 59.2747 281.928 58.1335C280.83 56.9871 279.197 55.8725 276.897 54.8162C272.303 52.6932 265.075 51 253 51ZM253 135.923C215.05 135.923 184 152.409 184 167.27V189H322V167.27C322 153.152 293.929 137.6 258.572 136.088C256.717 135.975 254.859 135.92 253 135.923V135.923ZM253 61.6154C263.925 61.6154 269.382 63.2077 271.688 64.2692C272.458 64.6248 272.55 64.7628 272.768 64.9327L275.103 92.1346C269.813 92.4318 262.602 93.4615 253 93.4615C243.398 93.4615 236.193 92.4318 230.897 92.1346L233.232 64.9327C233.444 64.7628 233.542 64.6248 234.312 64.2692C236.618 63.2077 242.075 61.6154 253 61.6154V61.6154ZM248.325 66.9231V73.2286H241.5V81.8536H248.331V88.1538H257.669V81.8483H264.5V73.2286H257.669V66.9231H248.331H248.325ZM235.75 147.865L250.487 178.385H195.5V167.27C195.5 163.316 210.163 151.735 235.75 147.865ZM270.25 147.865C295.837 151.74 310.5 163.316 310.5 167.27V178.385H255.513L270.25 147.865Z" fill="#EC5863" fill-opacity="0.6"/>
<defs>
<filter id="filter0_d" x="0" y="0" width="424" height="279" filterUnits="userSpaceOnUse" color-interpolation-filters="sRGB">
<feFlood flood-opacity="0" result="BackgroundImageFix"/>
<feColorMatrix in="SourceAlpha" type="matrix" values="0 0 0 0 0 0 0 0 0 0 0 0 0 0 0 0 0 0 127 0"/>
<feOffset dy="4"/>
<feGaussianBlur stdDeviation="2"/>
<feColorMatrix type="matrix" values="0 0 0 0 0 0 0 0 0 0 0 0 0 0 0 0 0 0 0.25 0"/>
<feBlend mode="normal" in2="BackgroundImageFix" result="effect1_dropShadow"/>
<feBlend mode="normal" in="SourceGraphic" in2="effect1_dropShadow" result="shape"/>
</filter>
</defs>
</svg>
