<svg width="423" height="279" viewBox="0 0 423 279" fill="none" xmlns="http://www.w3.org/2000/svg">
<g filter="url(#filter0_d)">
<rect x="4" width="415" height="270.426" rx="10" fill="#FCFCFC"/>
</g>
<g opacity="0.75">
<path d="M255.118 85.949C261.414 83.7589 268.345 86.7431 270.595 92.6115C272.317 97.1044 270.794 101.982 267.166 105.006L269.14 110.35L272.272 113.951C272.987 114.775 274.07 115.171 275.154 115.04C278.077 114.687 280.982 114.679 283.827 114.983C284.792 115.087 285.75 114.771 286.441 114.102L288.691 111.931L290.344 107.109C288.926 105.171 288.442 102.607 289.275 100.173C290.69 96.0478 295.334 93.9233 299.471 95.6221C303.035 97.0837 304.98 101.037 303.945 104.71C303.287 107.049 301.615 108.799 299.553 109.663L297.724 115.006L298.149 117.953C298.296 118.966 298.901 119.852 299.783 120.384C302.749 122.182 305.475 124.379 307.869 126.917C308.673 127.772 309.872 128.139 311.023 127.911L316.945 126.736L323.632 123.048C323.66 119.766 325.413 116.597 328.506 114.891C333.183 112.312 339.116 114.063 341.62 118.81C343.881 123.092 342.478 128.466 338.404 131.091C335.223 133.138 331.336 133.055 328.332 131.296L321.606 135.004L317.854 138.978C316.847 140.045 316.49 141.555 316.878 142.97C316.881 142.979 316.882 142.984 316.884 142.992C317.548 145.431 317.953 147.882 318.123 150.311C318.222 151.757 319.046 153.061 320.333 153.755L325.246 156.402L334.977 158.25C336.689 156.765 339.049 156.049 341.464 156.506C345.793 157.329 348.588 161.605 347.488 165.901C346.542 169.581 342.909 172.024 339.103 171.534C336.508 171.2 334.411 169.641 333.282 167.549L323.488 165.691L317.451 166.412C316.338 166.547 315.368 167.239 314.916 168.255C313.117 172.263 310.632 175.949 307.56 179.128C306.797 179.918 306.512 181.051 306.792 182.112L308.304 187.891L312.021 193.674C316.095 193.074 320.34 194.835 322.699 198.508C325.872 203.443 324.451 209.966 319.535 213.136C314.622 216.306 307.924 214.909 304.69 210.036C302.425 206.624 302.392 202.42 304.215 199.089L300.27 192.951L295.426 188.986C294.708 188.396 293.732 188.238 292.859 188.546C291.89 188.888 290.901 189.194 289.89 189.461C284.398 190.91 278.857 191.087 273.585 190.184C272.812 190.053 272.022 190.27 271.432 190.779L268.842 193.016L266.921 197.738C268.231 199.752 268.57 202.337 267.602 204.719C265.957 208.762 261.201 210.627 257.165 208.704C253.69 207.049 251.967 202.995 253.206 199.385C253.994 197.086 255.759 195.431 257.867 194.683L259.995 189.45L259.589 184.849C255.728 182.44 252.29 179.353 249.477 175.707L242.884 176.341L236.718 179.363C236.766 183.479 234.644 187.391 230.908 189.279C225.628 191.945 219.132 189.563 216.4 183.956C213.668 178.352 215.729 171.648 221.009 168.983C224.959 166.987 229.588 167.818 232.814 170.714L238.629 167.862L242.66 163.563C242.924 163.281 243.021 162.885 242.92 162.514L242.918 162.509C241.037 155.596 241.214 148.612 243.074 142.197C243.174 141.845 243.097 141.465 242.859 141.185L239.365 137.039L231.848 133.107C229.782 134.008 227.33 134.001 225.171 132.871C221.272 130.828 219.858 125.943 222.173 122.16C224.204 118.842 228.544 117.59 232.073 119.3C234.357 120.406 235.834 122.469 236.273 124.749L243.79 128.681L249.136 129.191C249.507 129.228 249.868 129.073 250.103 128.787C252.521 125.816 255.402 123.194 258.675 121.046C259.574 120.453 260.131 119.47 260.143 118.397L260.188 113.575L258.082 107.881C253.54 107.547 249.426 104.805 247.789 100.538C245.539 94.6695 248.821 88.1363 255.118 85.949Z" fill="#EC5863"/>
<path d="M307.288 145.519C303.203 130.506 287.63 121.571 272.506 125.562C257.381 129.552 248.432 144.958 252.517 159.971C256.602 174.984 272.175 183.919 287.299 179.928C302.424 175.938 311.373 160.532 307.288 145.519Z" fill="#F58A97"/>
<path d="M285.02 171.622C271.3 175.25 257.22 168.264 251.667 155.752C251.825 157.158 252.093 158.569 252.475 159.978C256.551 174.987 272.128 183.909 287.27 179.906C302.411 175.902 311.381 160.49 307.305 145.48C306.923 144.072 306.439 142.717 305.864 141.422C307.394 154.997 298.741 167.994 285.02 171.622Z" fill="#F07281"/>
<path d="M242.387 211.637C241.225 207.363 236.79 204.82 232.482 205.957C228.174 207.095 225.624 211.482 226.786 215.756C227.949 220.03 232.383 222.573 236.691 221.436C240.999 220.298 243.55 215.911 242.387 211.637Z" fill="#EB5569"/>
<path d="M343.283 187.153C342.516 184.33 339.587 182.65 336.741 183.402C333.896 184.153 332.211 187.051 332.979 189.874C333.746 192.697 336.676 194.377 339.521 193.625C342.367 192.874 344.051 189.976 343.283 187.153Z" fill="#EB5569"/>
<path d="M328.811 90.5423C327.68 86.3839 323.366 83.91 319.175 85.0167C314.984 86.1233 312.502 90.3914 313.633 94.5497C314.764 98.7081 319.078 101.182 323.27 100.075C327.461 98.9688 329.942 94.7006 328.811 90.5423Z" fill="#EB5569"/>
<path d="M281.669 161.213C280.614 157.336 276.592 155.03 272.684 156.061C268.777 157.093 266.464 161.072 267.518 164.949C268.572 168.826 272.595 171.132 276.502 170.101C280.41 169.069 282.723 165.09 281.669 161.213Z" fill="#EB5569"/>
<path d="M299.893 150.349C299.176 147.71 296.438 146.14 293.778 146.842C291.119 147.545 289.544 150.253 290.262 152.892C290.979 155.531 293.717 157.101 296.377 156.398C299.036 155.696 300.611 152.988 299.893 150.349Z" fill="#EB5569"/>
<path d="M280.621 139.4C280.018 137.184 277.719 135.866 275.486 136.455C273.252 137.045 271.93 139.319 272.533 141.535C273.135 143.751 275.434 145.069 277.668 144.48C279.901 143.89 281.223 141.616 280.621 139.4Z" fill="#EB5569"/>
</g>
<defs>
<filter id="filter0_d" x="0" y="0" width="423" height="278.426" filterUnits="userSpaceOnUse" color-interpolation-filters="sRGB">
<feFlood flood-opacity="0" result="BackgroundImageFix"/>
<feColorMatrix in="SourceAlpha" type="matrix" values="0 0 0 0 0 0 0 0 0 0 0 0 0 0 0 0 0 0 127 0"/>
<feOffset dy="4"/>
<feGaussianBlur stdDeviation="2"/>
<feColorMatrix type="matrix" values="0 0 0 0 0 0 0 0 0 0 0 0 0 0 0 0 0 0 0.25 0"/>
<feBlend mode="normal" in2="BackgroundImageFix" result="effect1_dropShadow"/>
<feBlend mode="normal" in="SourceGraphic" in2="effect1_dropShadow" result="shape"/>
</filter>
</defs>
</svg>
