<svg width="423" height="279" viewBox="0 0 423 279" fill="none" xmlns="http://www.w3.org/2000/svg">
<g filter="url(#filter0_d)">
<rect x="4" width="415" height="271" rx="10" fill="#FCFCFC"/>
</g>
<g opacity="0.6">
<path d="M230.686 81.2182C237.166 79.0887 244.289 81.9606 246.591 87.6298C248.353 91.9703 246.776 96.6885 243.038 99.6197L245.058 104.782L248.271 108.258C249.005 109.053 250.118 109.433 251.233 109.305C254.24 108.958 257.228 108.945 260.154 109.233C261.146 109.332 262.133 109.025 262.844 108.377L265.163 106.273L266.873 101.609C265.419 99.7376 264.926 97.2596 265.789 94.9051C267.252 90.9137 272.033 88.8509 276.284 90.4853C279.947 91.8916 281.94 95.7097 280.868 99.2627C280.186 101.526 278.462 103.221 276.34 104.06L274.447 109.229L274.879 112.077C275.027 113.056 275.648 113.912 276.554 114.425C279.601 116.158 282.4 118.276 284.857 120.725C285.683 121.55 286.915 121.903 288.099 121.68L294.193 120.533L301.078 116.955C301.113 113.782 302.923 110.714 306.108 109.059C310.924 106.557 317.022 108.238 319.589 112.822C321.905 116.958 320.451 122.157 316.255 124.703C312.979 126.687 308.981 126.615 305.895 124.92L298.969 128.517L295.102 132.367C294.064 133.4 293.694 134.861 294.09 136.228C294.092 136.236 294.094 136.242 294.096 136.25C294.774 138.606 295.185 140.975 295.355 143.323C295.454 144.721 296.299 145.98 297.622 146.648L302.669 149.198L312.674 150.966C314.437 149.527 316.867 148.831 319.349 149.267C323.801 150.055 326.666 154.184 325.526 158.34C324.545 161.899 320.803 164.268 316.89 163.801C314.222 163.483 312.068 161.98 310.911 159.96L300.841 158.182L294.631 158.89C293.486 159.023 292.486 159.694 292.019 160.677C290.161 164.556 287.597 168.124 284.431 171.203C283.644 171.969 283.349 173.064 283.635 174.09L285.178 179.674L288.989 185.258C293.181 184.67 297.542 186.364 299.962 189.911C303.215 194.676 301.74 200.985 296.677 204.06C291.617 207.133 284.731 205.796 281.414 201.09C279.092 197.796 279.067 193.732 280.949 190.508L276.904 184.581L271.93 180.757C271.193 180.188 270.189 180.037 269.291 180.337C268.293 180.67 267.276 180.967 266.235 181.227C260.583 182.638 254.884 182.82 249.463 181.957C248.668 181.832 247.856 182.044 247.248 182.536L244.579 184.704L242.593 189.273C243.936 191.218 244.28 193.716 243.279 196.021C241.579 199.933 236.683 201.745 232.536 199.894C228.965 198.3 227.201 194.384 228.483 190.892C229.299 188.667 231.118 187.064 233.288 186.337L235.487 181.273L235.078 176.826C231.113 174.505 227.583 171.527 224.698 168.007L217.915 168.632L211.566 171.566C211.608 175.545 209.416 179.332 205.57 181.164C200.134 183.751 193.458 181.461 190.659 176.046C187.861 170.633 189.995 164.147 195.43 161.56C199.498 159.624 204.258 160.418 207.569 163.211L213.556 160.443L217.711 156.279C217.983 156.006 218.084 155.623 217.981 155.265L217.979 155.259C216.059 148.58 216.255 141.828 218.181 135.622C218.285 135.281 218.207 134.914 217.962 134.643L214.377 130.642L206.654 126.855C204.527 127.73 202.005 127.728 199.787 126.639C195.781 124.672 194.337 119.952 196.725 116.29C198.822 113.078 203.287 111.859 206.914 113.506C209.261 114.571 210.775 116.562 211.223 118.766L218.946 122.553L224.443 123.036C224.825 123.071 225.197 122.92 225.439 122.643C227.932 119.766 230.9 117.226 234.272 115.143C235.197 114.568 235.772 113.616 235.787 112.579L235.843 107.917L233.689 102.416C229.018 102.102 224.792 99.4594 223.117 95.3367C220.816 89.6674 224.204 83.3449 230.686 81.2182Z" fill="#7CDE8A"/>
<path d="M284.219 138.717C280.049 124.21 264.051 115.602 248.487 119.489C232.922 123.375 223.686 138.286 227.856 152.793C232.027 167.299 248.025 175.908 263.589 172.021C279.153 168.134 288.389 153.223 284.219 138.717Z" fill="#A6F8B2"/>
<path d="M261.287 164.015C247.183 167.537 232.723 160.799 227.031 148.708C227.192 150.067 227.465 151.432 227.856 152.793C232.027 167.299 248.024 175.908 263.589 172.021C279.153 168.134 288.39 153.223 284.219 138.717C283.828 137.356 283.333 136.047 282.743 134.795C284.299 147.918 275.391 160.493 261.287 164.015Z" fill="#D3FCC4"/>
<path d="M217.509 202.744C216.322 198.613 211.766 196.161 207.334 197.268C202.901 198.375 200.271 202.621 201.459 206.752C202.646 210.883 207.202 213.335 211.634 212.228C216.067 211.121 218.697 206.875 217.509 202.744Z" fill="#D3FCC4"/>
<path d="M321.158 179.05C320.373 176.322 317.364 174.702 314.437 175.433C311.509 176.165 309.772 178.969 310.556 181.698C311.341 184.426 314.35 186.046 317.277 185.315C320.205 184.583 321.942 181.779 321.158 179.05Z" fill="#7CDE8A"/>
<path d="M306.294 85.5385C305.139 81.5195 300.707 79.1345 296.395 80.2113C292.083 81.2882 289.524 85.4193 290.679 89.4383C291.835 93.4573 296.267 95.8423 300.579 94.7655C304.891 93.6886 307.45 89.5575 306.294 85.5385Z" fill="#D3FCC4"/>
<path d="M257.863 153.94C256.786 150.193 252.653 147.97 248.633 148.974C244.613 149.978 242.227 153.829 243.305 157.576C244.382 161.323 248.514 163.547 252.534 162.543C256.554 161.539 258.94 157.687 257.863 153.94Z" fill="#7CDE8A"/>
<path d="M276.582 143.428C275.849 140.878 273.036 139.364 270.3 140.048C267.563 140.731 265.94 143.352 266.673 145.903C267.406 148.453 270.219 149.967 272.955 149.283C275.691 148.6 277.315 145.979 276.582 143.428Z" fill="#7CDE8A"/>
<g filter="url(#filter1_d)">
<path d="M256.781 132.832C256.166 130.69 253.804 129.419 251.506 129.993C249.208 130.567 247.845 132.768 248.461 134.91C249.076 137.051 251.438 138.322 253.736 137.748C256.034 137.175 257.397 134.973 256.781 132.832Z" fill="#7CDE8A"/>
<path d="M251.644 130.474C253.702 129.96 255.765 131.104 256.296 132.953C256.828 134.802 255.656 136.754 253.598 137.268C251.54 137.782 249.477 136.638 248.946 134.789C248.414 132.94 249.586 130.988 251.644 130.474Z" stroke="#63FF7A"/>
</g>
</g>
<defs>
<filter id="filter0_d" x="0" y="0" width="423" height="279" filterUnits="userSpaceOnUse" color-interpolation-filters="sRGB">
<feFlood flood-opacity="0" result="BackgroundImageFix"/>
<feColorMatrix in="SourceAlpha" type="matrix" values="0 0 0 0 0 0 0 0 0 0 0 0 0 0 0 0 0 0 127 0"/>
<feOffset dy="4"/>
<feGaussianBlur stdDeviation="2"/>
<feColorMatrix type="matrix" values="0 0 0 0 0 0 0 0 0 0 0 0 0 0 0 0 0 0 0.25 0"/>
<feBlend mode="normal" in2="BackgroundImageFix" result="effect1_dropShadow"/>
<feBlend mode="normal" in="SourceGraphic" in2="effect1_dropShadow" result="shape"/>
</filter>
<filter id="filter1_d" x="244.313" y="129.855" width="16.6166" height="16.031" filterUnits="userSpaceOnUse" color-interpolation-filters="sRGB">
<feFlood flood-opacity="0" result="BackgroundImageFix"/>
<feColorMatrix in="SourceAlpha" type="matrix" values="0 0 0 0 0 0 0 0 0 0 0 0 0 0 0 0 0 0 127 0"/>
<feOffset dy="4"/>
<feGaussianBlur stdDeviation="2"/>
<feColorMatrix type="matrix" values="0 0 0 0 0 0 0 0 0 0 0 0 0 0 0 0 0 0 0.25 0"/>
<feBlend mode="normal" in2="BackgroundImageFix" result="effect1_dropShadow"/>
<feBlend mode="normal" in="SourceGraphic" in2="effect1_dropShadow" result="shape"/>
</filter>
</defs>
</svg>
