<svg width="423" height="278" viewBox="0 0 423 278" fill="none" xmlns="http://www.w3.org/2000/svg">
<g filter="url(#filter0_d)">
<rect x="4" width="415" height="270" rx="10" fill="#FCFCFC"/>
</g>
<path d="M234.105 106C224.264 106 214.826 109.684 207.868 116.24C200.909 122.797 197 131.69 197 140.963C197 144.141 197.607 147.319 198.484 150.498H226.009L234.577 129.075C236.601 123.99 244.561 123.481 247.125 129.075L261.09 163.211L265.07 154.185C265.947 152.087 268.308 150.498 271.209 150.498H330.442C331.319 147.319 331.926 144.141 331.926 140.963C331.926 131.69 328.017 122.797 321.058 116.24C314.1 109.684 304.662 106 294.821 106C282.273 106 271.209 111.912 264.463 120.875C257.717 111.912 246.653 106 234.105 106ZM203.746 160.033C201.957 160.033 200.241 160.703 198.976 161.895C197.711 163.087 197 164.704 197 166.39C197 168.076 197.711 169.693 198.976 170.885C200.241 172.077 201.957 172.747 203.746 172.747H220.207L257.717 207.709C264.463 213.43 264.463 213.43 271.209 207.709L308.719 172.747H325.18C326.969 172.747 328.685 172.077 329.95 170.885C331.215 169.693 331.926 168.076 331.926 166.39C331.926 164.704 331.215 163.087 329.95 161.895C328.685 160.703 326.969 160.033 325.18 160.033H273.908L267.634 174.654C264.935 181.074 257.177 180.184 254.681 174.844L240.851 140.963L234.375 155.774C233.363 158.19 231.069 160.033 228.033 160.033H203.746Z" fill="#EC5863" fill-opacity="0.6"/>
<defs>
<filter id="filter0_d" x="0" y="0" width="423" height="278" filterUnits="userSpaceOnUse" color-interpolation-filters="sRGB">
<feFlood flood-opacity="0" result="BackgroundImageFix"/>
<feColorMatrix in="SourceAlpha" type="matrix" values="0 0 0 0 0 0 0 0 0 0 0 0 0 0 0 0 0 0 127 0"/>
<feOffset dy="4"/>
<feGaussianBlur stdDeviation="2"/>
<feColorMatrix type="matrix" values="0 0 0 0 0 0 0 0 0 0 0 0 0 0 0 0 0 0 0.25 0"/>
<feBlend mode="normal" in2="BackgroundImageFix" result="effect1_dropShadow"/>
<feBlend mode="normal" in="SourceGraphic" in2="effect1_dropShadow" result="shape"/>
</filter>
</defs>
</svg>
