<svg width="70" height="56" viewBox="0 0 70 56" fill="none" xmlns="http://www.w3.org/2000/svg">
<path d="M18.977 0C13.9445 0 9.11817 1.94602 5.55966 5.40996C2.00116 8.8739 0.00201416 13.572 0.00201416 18.4708C0.00201416 20.1499 0.312514 21.8291 0.761014 23.5082H14.837L19.2185 12.1907C20.2535 9.50405 24.3245 9.23538 25.6355 12.1907L32.777 30.2249L34.8125 25.4561C35.261 24.3478 36.4685 23.5082 37.952 23.5082H68.243C68.6915 21.8291 69.002 20.1499 69.002 18.4708C69.002 13.572 67.0029 8.8739 63.4444 5.40996C59.8859 1.94602 55.0595 0 50.027 0C43.61 0 37.952 3.12324 34.502 7.85847C31.052 3.12324 25.394 0 18.977 0ZM3.45201 28.5457C2.53702 28.5457 1.6595 28.8996 1.0125 29.5294C0.365495 30.1592 0.00201416 31.0134 0.00201416 31.904C0.00201416 32.7947 0.365495 33.6489 1.0125 34.2787C1.6595 34.9085 2.53702 35.2624 3.45201 35.2624H11.87L31.052 53.7331C34.502 56.7556 34.502 56.7556 37.952 53.7331L57.134 35.2624H65.552C66.467 35.2624 67.3445 34.9085 67.9915 34.2787C68.6385 33.6489 69.002 32.7947 69.002 31.904C69.002 31.0134 68.6385 30.1592 67.9915 29.5294C67.3445 28.8996 66.467 28.5457 65.552 28.5457H39.332L36.1235 36.2699C34.7435 39.6618 30.776 39.1916 29.4995 36.3706L22.427 18.4708L19.115 26.2957C18.5975 27.5718 17.4245 28.5457 15.872 28.5457H3.45201Z" fill="#6B36F7"/>
</svg>
