<svg width="216" height="41" viewBox="0 0 216 41" fill="none" xmlns="http://www.w3.org/2000/svg">
<rect y="2" width="39" height="39" rx="10" fill="#6B36F7"/>
<path d="M4.98 21.2C4.98 19.2773 5.40933 17.56 6.268 16.048C7.14533 14.5173 8.33067 13.332 9.824 12.492C11.336 11.6333 13.0253 11.204 14.892 11.204C17.076 11.204 18.9893 11.764 20.632 12.884C22.2747 14.004 23.4227 15.5533 24.076 17.532H19.568C19.12 16.5987 18.4853 15.8987 17.664 15.432C16.8613 14.9653 15.928 14.732 14.864 14.732C13.7253 14.732 12.708 15.0027 11.812 15.544C10.9347 16.0667 10.244 16.8133 9.74 17.784C9.25467 18.7547 9.012 19.8933 9.012 21.2C9.012 22.488 9.25467 23.6267 9.74 24.616C10.244 25.5867 10.9347 26.3427 11.812 26.884C12.708 27.4067 13.7253 27.668 14.864 27.668C15.928 27.668 16.8613 27.4347 17.664 26.968C18.4853 26.4827 19.12 25.7733 19.568 24.84H24.076C23.4227 26.8373 22.2747 28.396 20.632 29.516C19.008 30.6173 17.0947 31.168 14.892 31.168C13.0253 31.168 11.336 30.748 9.824 29.908C8.33067 29.0493 7.14533 27.864 6.268 26.352C5.40933 24.84 4.98 23.1227 4.98 21.2ZM31.3442 11.456V31H27.4242V11.456H31.3442Z" fill="white"/>
<path d="M47.98 23.2C47.98 21.2773 48.4093 19.56 49.268 18.048C50.1453 16.5173 51.3307 15.332 52.824 14.492C54.336 13.6333 56.0253 13.204 57.892 13.204C60.076 13.204 61.9893 13.764 63.632 14.884C65.2747 16.004 66.4227 17.5533 67.076 19.532H62.568C62.12 18.5987 61.4853 17.8987 60.664 17.432C59.8613 16.9653 58.928 16.732 57.864 16.732C56.7253 16.732 55.708 17.0027 54.812 17.544C53.9347 18.0667 53.244 18.8133 52.74 19.784C52.2547 20.7547 52.012 21.8933 52.012 23.2C52.012 24.488 52.2547 25.6267 52.74 26.616C53.244 27.5867 53.9347 28.3427 54.812 28.884C55.708 29.4067 56.7253 29.668 57.864 29.668C58.928 29.668 59.8613 29.4347 60.664 28.968C61.4853 28.4827 62.12 27.7733 62.568 26.84H67.076C66.4227 28.8373 65.2747 30.396 63.632 31.516C62.008 32.6173 60.0947 33.168 57.892 33.168C56.0253 33.168 54.336 32.748 52.824 31.908C51.3307 31.0493 50.1453 29.864 49.268 28.352C48.4093 26.84 47.98 25.1227 47.98 23.2ZM77.3122 33.252C75.8189 33.252 74.4749 32.9253 73.2802 32.272C72.0855 31.6 71.1429 30.6573 70.4522 29.444C69.7802 28.2307 69.4442 26.8307 69.4442 25.244C69.4442 23.6573 69.7895 22.2573 70.4802 21.044C71.1895 19.8307 72.1509 18.8973 73.3642 18.244C74.5775 17.572 75.9309 17.236 77.4242 17.236C78.9175 17.236 80.2709 17.572 81.4842 18.244C82.6975 18.8973 83.6495 19.8307 84.3402 21.044C85.0495 22.2573 85.4042 23.6573 85.4042 25.244C85.4042 26.8307 85.0402 28.2307 84.3122 29.444C83.6029 30.6573 82.6322 31.6 81.4002 32.272C80.1869 32.9253 78.8242 33.252 77.3122 33.252ZM77.3122 29.836C78.0215 29.836 78.6842 29.668 79.3002 29.332C79.9349 28.9773 80.4389 28.4547 80.8122 27.764C81.1855 27.0733 81.3722 26.2333 81.3722 25.244C81.3722 23.7693 80.9802 22.64 80.1962 21.856C79.4309 21.0533 78.4882 20.652 77.3682 20.652C76.2482 20.652 75.3055 21.0533 74.5402 21.856C73.7935 22.64 73.4202 23.7693 73.4202 25.244C73.4202 26.7187 73.7842 27.8573 74.5122 28.66C75.2589 29.444 76.1922 29.836 77.3122 29.836ZM94.7477 29.388L98.6677 17.488H102.84L97.0997 33H92.3397L86.6277 17.488H90.8277L94.7477 29.388ZM107.029 15.64C106.339 15.64 105.76 15.4253 105.293 14.996C104.845 14.548 104.621 13.9973 104.621 13.344C104.621 12.6907 104.845 12.1493 105.293 11.72C105.76 11.272 106.339 11.048 107.029 11.048C107.72 11.048 108.289 11.272 108.737 11.72C109.204 12.1493 109.437 12.6907 109.437 13.344C109.437 13.9973 109.204 14.548 108.737 14.996C108.289 15.4253 107.72 15.64 107.029 15.64ZM108.961 17.488V33H105.041V17.488H108.961ZM111.826 25.188C111.826 23.62 112.134 22.2293 112.75 21.016C113.385 19.8027 114.244 18.8693 115.326 18.216C116.409 17.5627 117.613 17.236 118.938 17.236C119.946 17.236 120.908 17.46 121.822 17.908C122.737 18.3373 123.465 18.916 124.006 19.644V12.28H127.982V33H124.006V30.704C123.521 31.4693 122.84 32.0853 121.962 32.552C121.085 33.0187 120.068 33.252 118.91 33.252C117.604 33.252 116.409 32.916 115.326 32.244C114.244 31.572 113.385 30.6293 112.75 29.416C112.134 28.184 111.826 26.7747 111.826 25.188ZM124.034 25.244C124.034 24.292 123.848 23.48 123.474 22.808C123.101 22.1173 122.597 21.5947 121.962 21.24C121.328 20.8667 120.646 20.68 119.918 20.68C119.19 20.68 118.518 20.8573 117.902 21.212C117.286 21.5667 116.782 22.0893 116.39 22.78C116.017 23.452 115.83 24.2547 115.83 25.188C115.83 26.1213 116.017 26.9427 116.39 27.652C116.782 28.3427 117.286 28.8747 117.902 29.248C118.537 29.6213 119.209 29.808 119.918 29.808C120.646 29.808 121.328 29.6307 121.962 29.276C122.597 28.9027 123.101 28.38 123.474 27.708C123.848 27.0173 124.034 26.196 124.034 25.244Z" fill="#6B36F7"/>
<path d="M142.403 13.456V33H138.483V13.456H142.403ZM154.872 17.264C156.72 17.264 158.213 17.852 159.352 19.028C160.49 20.1853 161.06 21.8093 161.06 23.9V33H157.14V24.432C157.14 23.2 156.832 22.2573 156.216 21.604C155.6 20.932 154.76 20.596 153.696 20.596C152.613 20.596 151.754 20.932 151.12 21.604C150.504 22.2573 150.196 23.2 150.196 24.432V33H146.276V17.488H150.196V19.42C150.718 18.748 151.381 18.2253 152.184 17.852C153.005 17.46 153.901 17.264 154.872 17.264ZM171.899 20.708H169.183V33H165.207V20.708H163.443V17.488H165.207V16.704C165.207 14.8 165.749 13.4 166.831 12.504C167.914 11.608 169.547 11.188 171.731 11.244V14.548C170.779 14.5293 170.117 14.688 169.743 15.024C169.37 15.36 169.183 15.9667 169.183 16.844V17.488H171.899V20.708ZM181.328 33.252C179.834 33.252 178.49 32.9253 177.296 32.272C176.101 31.6 175.158 30.6573 174.468 29.444C173.796 28.2307 173.46 26.8307 173.46 25.244C173.46 23.6573 173.805 22.2573 174.496 21.044C175.205 19.8307 176.166 18.8973 177.38 18.244C178.593 17.572 179.946 17.236 181.44 17.236C182.933 17.236 184.286 17.572 185.5 18.244C186.713 18.8973 187.665 19.8307 188.356 21.044C189.065 22.2573 189.42 23.6573 189.42 25.244C189.42 26.8307 189.056 28.2307 188.328 29.444C187.618 30.6573 186.648 31.6 185.416 32.272C184.202 32.9253 182.84 33.252 181.328 33.252ZM181.328 29.836C182.037 29.836 182.7 29.668 183.316 29.332C183.95 28.9773 184.454 28.4547 184.828 27.764C185.201 27.0733 185.388 26.2333 185.388 25.244C185.388 23.7693 184.996 22.64 184.212 21.856C183.446 21.0533 182.504 20.652 181.384 20.652C180.264 20.652 179.321 21.0533 178.556 21.856C177.809 22.64 177.436 23.7693 177.436 25.244C177.436 26.7187 177.8 27.8573 178.528 28.66C179.274 29.444 180.208 29.836 181.328 29.836Z" fill="#333333"/>
</svg>
