<svg width="45" height="45" viewBox="0 0 45 45" fill="none" xmlns="http://www.w3.org/2000/svg">
<path d="M31 42V34.8221C31.075 33.9376 30.9462 33.0485 30.622 32.2139C30.2979 31.3792 29.7859 30.6181 29.12 29.9811C35.4 29.3319 42 27.1247 42 16.9977C41.9995 14.4081 40.9254 11.9178 39 10.0423C39.9117 7.77665 40.0272 5.27237 39 3.0497C39 3.0497 36.46 2.40057 31 5.79481C26.416 4.64267 21.584 4.64267 17 5.79481C11.54 2.40057 9.18 3.04974 9.18 3.04974C8.15275 5.27242 8.08829 7.77665 9 10.0423C7.06025 11.9317 5.98505 14.4445 6 17.0533C6 27.1062 12.6 29.3134 18.88 30.0367C18.222 30.6673 17.7145 31.4193 17.3906 32.2438C17.0667 33.0683 16.9336 33.9467 17 34.8221V42M17 36.4357C7 39.2179 7 31.7988 3 30.8714L17 36.4357Z" stroke="#6B36F7" stroke-width="5" stroke-linecap="round" stroke-linejoin="round"/>
</svg>
