<svg width="48" height="48" viewBox="0 0 48 48" fill="none" xmlns="http://www.w3.org/2000/svg">
<path d="M16.9712 5.98646C18.6714 5.38704 20.5401 6.19545 21.144 7.79131C21.6063 9.01313 21.1926 10.3413 20.2119 11.1664L20.7418 12.6195L21.585 13.5979C21.7775 13.8218 22.0694 13.9289 22.362 13.8927C23.1509 13.7951 23.9349 13.7914 24.7026 13.8726C24.9628 13.9004 25.2216 13.8139 25.4084 13.6315L26.0168 13.0394L26.4654 11.7262C26.0838 11.1996 25.9546 10.502 26.1808 9.83923C26.5648 8.71571 27.8191 8.13502 28.9346 8.59511C29.8955 8.99097 30.4183 10.0657 30.137 11.0659C29.9583 11.7029 29.5059 12.18 28.9492 12.4162L28.4525 13.8714L28.5658 14.6731C28.6047 14.9487 28.7675 15.1895 29.0053 15.3338C29.8048 15.8217 30.5391 16.4181 31.1838 17.1075C31.4004 17.3396 31.7236 17.4391 32.0342 17.3761L33.6331 17.0534L35.4394 16.046C35.4488 15.1529 35.9236 14.2895 36.7592 13.8234C38.0226 13.1192 39.6227 13.5924 40.296 14.8829C40.9037 16.047 40.5222 17.5104 39.4214 18.2271C38.5618 18.7857 37.5129 18.7653 36.7033 18.2882L34.8862 19.3009L33.8716 20.3846C33.5992 20.6753 33.5022 21.0865 33.6061 21.4714C33.6068 21.4737 33.6072 21.4752 33.6078 21.4775C33.7855 22.1409 33.8935 22.8076 33.9381 23.4685C33.9639 23.8622 34.1856 24.2164 34.5327 24.4046L35.857 25.1224L38.4818 25.6201C38.9445 25.2149 39.5819 25.019 40.2332 25.1419C41.401 25.3636 42.1529 26.5257 41.8536 27.6956C41.5963 28.6975 40.6146 29.3644 39.588 29.2331C38.888 29.1436 38.3228 28.7206 38.0192 28.1518L35.3774 27.6513L33.7479 27.8507C33.4475 27.8881 33.1853 28.077 33.0628 28.3536C32.5752 29.4456 31.9025 30.4498 31.0719 31.3168C30.8655 31.5321 30.7881 31.8406 30.863 32.1293L31.268 33.7013L32.2677 35.2731C33.3675 35.1076 34.5119 35.5844 35.1467 36.5828C36.0001 37.9241 35.6131 39.7002 34.2847 40.5656C32.9572 41.4308 31.1506 41.0543 30.2805 39.7297C29.6712 38.8024 29.6645 37.6584 30.1584 36.7509L29.097 35.0826L27.792 34.0061C27.5987 33.8458 27.3355 33.8034 27.0997 33.8877C26.8379 33.9814 26.571 34.0651 26.2981 34.1382C24.8151 34.5356 23.3198 34.5868 21.8976 34.3438C21.6891 34.3087 21.4759 34.3682 21.3164 34.5069L20.6161 35.1171L20.0953 36.4032C20.4476 36.9508 20.5377 37.6539 20.2752 38.3029C19.8292 39.404 18.5446 39.914 17.4566 39.3929C16.5197 38.9443 16.057 37.842 16.3933 36.8589C16.6074 36.2327 17.0846 35.7814 17.6538 35.5768L18.2307 34.1513L18.1236 32.8994C17.0831 32.2461 16.1572 31.4077 15.4001 30.4169L13.6205 30.593L11.9549 31.4188C11.9658 32.5389 11.3908 33.6048 10.3816 34.1206C8.95559 34.8489 7.20393 34.2041 6.46962 32.6798C5.73552 31.1562 6.29542 29.3305 7.72145 28.6023C8.7886 28.0571 10.0374 28.2807 10.9063 29.0669L12.4771 28.2877L13.5672 27.1155C13.6384 27.0387 13.6648 26.9309 13.6378 26.8301L13.6374 26.8286C13.1336 24.9483 13.185 23.0476 13.6904 21.3008C13.7176 21.2049 13.6972 21.1015 13.6329 21.0253L12.6924 19.8991L10.6661 18.8331C10.108 19.0793 9.44637 19.0786 8.8645 18.7722C7.81332 18.2185 7.43455 16.8898 8.06113 15.8589C8.61122 14.9549 9.78287 14.6117 10.7343 15.0752C11.3501 15.375 11.7474 15.9357 11.8648 16.5559L13.8911 17.6219L15.3334 17.758C15.4335 17.7677 15.531 17.7253 15.5946 17.6474C16.2487 16.8374 17.0274 16.1225 17.9121 15.5361C18.1548 15.3743 18.3056 15.1064 18.3095 14.8144L18.3243 13.5022L17.7591 11.9536C16.5335 11.8651 15.4249 11.1212 14.9855 9.96073C14.3816 8.36488 15.2707 6.58512 16.9712 5.98646Z" fill="#7CDE8A"/>
<path d="M31.0163 22.1719C29.9222 18.0885 25.7249 15.6652 21.6414 16.7593C17.558 17.8535 15.1347 22.0508 16.2288 26.1342C17.323 30.2177 21.5203 32.641 25.6037 31.5468C29.6872 30.4526 32.1105 26.2554 31.0163 22.1719Z" fill="#A6F8B2"/>
<path d="M24.9999 29.2932C21.2994 30.2847 17.5057 28.3879 16.0122 24.9846C16.0545 25.367 16.1262 25.7511 16.2288 26.1342C17.323 30.2178 21.5202 32.641 25.6037 31.5468C29.6873 30.4526 32.1105 26.2555 31.0163 22.1719C30.9137 21.7888 30.7837 21.4203 30.6291 21.068C31.0373 24.762 28.7002 28.3017 24.9999 29.2932Z" fill="#D3FCC4"/>
<path d="M13.5142 40.1952C13.2026 39.0323 12.0073 38.3422 10.8445 38.6538C9.68161 38.9654 8.99152 40.1607 9.3031 41.3235C9.61469 42.4864 10.81 43.1765 11.9728 42.8649C13.1357 42.5533 13.8258 41.358 13.5142 40.1952Z" fill="#D3FCC4"/>
<path d="M40.7078 33.5255C40.5019 32.7575 39.7125 32.3017 38.9444 32.5075C38.1763 32.7133 37.7205 33.5028 37.9263 34.2708C38.1321 35.0389 38.9216 35.4947 39.6897 35.2889C40.4577 35.0831 40.9136 34.2936 40.7078 33.5255Z" fill="#7CDE8A"/>
<path d="M36.8081 7.20261C36.5049 6.07129 35.3421 5.39991 34.2108 5.70305C33.0794 6.00619 32.4081 7.16905 32.7112 8.30037C33.0143 9.4317 34.1772 10.1031 35.3085 9.79994C36.4398 9.4968 37.1112 8.33394 36.8081 7.20261Z" fill="#D3FCC4"/>
<path d="M24.1014 26.4573C23.8188 25.4025 22.7347 24.7766 21.6799 25.0592C20.6252 25.3419 19.9993 26.426 20.2819 27.4807C20.5645 28.5355 21.6486 29.1614 22.7034 28.8788C23.7581 28.5962 24.3841 27.512 24.1014 26.4573Z" fill="#7CDE8A"/>
<path d="M29.0126 23.4982C28.8203 22.7803 28.0824 22.3542 27.3644 22.5466C26.6465 22.739 26.2205 23.4769 26.4129 24.1948C26.6052 24.9127 27.3432 25.3387 28.0611 25.1464C28.779 24.954 29.205 24.2161 29.0126 23.4982Z" fill="#7CDE8A"/>
<g filter="url(#filter0_d)">
<path d="M23.8177 20.5153C23.6562 19.9125 23.0366 19.5547 22.4337 19.7163C21.8309 19.8778 21.4731 20.4974 21.6346 21.1003C21.7962 21.7031 22.4158 22.0609 23.0187 21.8994C23.6215 21.7378 23.9793 21.1182 23.8177 20.5153Z" fill="#7CDE8A"/>
<path d="M22.5631 20.1992C22.8992 20.1092 23.2447 20.3086 23.3348 20.6447C23.4248 20.9808 23.2254 21.3263 22.8893 21.4164C22.5532 21.5065 22.2077 21.307 22.1176 20.9709C22.0275 20.6348 22.227 20.2893 22.5631 20.1992Z" stroke="#63FF7A"/>
</g>
<defs>
<filter id="filter0_d" x="17.5959" y="19.6775" width="10.2607" height="10.2607" filterUnits="userSpaceOnUse" color-interpolation-filters="sRGB">
<feFlood flood-opacity="0" result="BackgroundImageFix"/>
<feColorMatrix in="SourceAlpha" type="matrix" values="0 0 0 0 0 0 0 0 0 0 0 0 0 0 0 0 0 0 127 0"/>
<feOffset dy="4"/>
<feGaussianBlur stdDeviation="2"/>
<feColorMatrix type="matrix" values="0 0 0 0 0 0 0 0 0 0 0 0 0 0 0 0 0 0 0.25 0"/>
<feBlend mode="normal" in2="BackgroundImageFix" result="effect1_dropShadow"/>
<feBlend mode="normal" in="SourceGraphic" in2="effect1_dropShadow" result="shape"/>
</filter>
</defs>
</svg>
