<svg width="63" height="63" viewBox="0 0 63 63" fill="none" xmlns="http://www.w3.org/2000/svg">
<path d="M22.2747 7.85718C24.5063 7.07044 26.9589 8.13148 27.7516 10.226C28.3583 11.8297 27.8154 13.5729 26.5281 14.6558L27.2237 16.5631L28.3304 17.8472C28.583 18.1411 28.9662 18.2816 29.3502 18.2341C30.3856 18.106 31.4146 18.1012 32.4223 18.2077C32.7638 18.2442 33.1035 18.1308 33.3486 17.8912L34.1472 17.1141L34.7359 15.3906C34.235 14.6994 34.0654 13.7838 34.3624 12.9139C34.8664 11.4393 36.5126 10.6772 37.9767 11.281C39.2379 11.8006 39.9241 13.2112 39.5549 14.5239C39.3203 15.36 38.7266 15.9862 37.9958 16.2962L37.344 18.2061L37.4926 19.2584C37.5437 19.6202 37.7574 19.9362 38.0695 20.1256C39.1189 20.766 40.0826 21.5487 40.9288 22.4536C41.213 22.7582 41.6373 22.8887 42.045 22.8061L44.1435 22.3825L46.5143 21.0604C46.5266 19.8881 47.1497 18.7549 48.2465 18.1432C49.9048 17.2189 52.0049 17.84 52.8885 19.5337C53.6862 21.0617 53.1854 22.9823 51.7406 23.923C50.6124 24.6562 49.2358 24.6294 48.1732 24.0033L45.7882 25.3324L44.4565 26.7547C44.099 27.1363 43.9717 27.676 44.1081 28.1812C44.1089 28.1842 44.1095 28.1862 44.1103 28.1892C44.3436 29.0599 44.4852 29.9349 44.5438 30.8023C44.5777 31.319 44.8687 31.784 45.3242 32.0309L47.0623 32.9731L50.5074 33.6263C51.1147 33.0946 51.9513 32.8373 52.8062 32.9986C54.3389 33.2897 55.3257 34.815 54.9329 36.3505C54.5952 37.6654 53.3067 38.5407 51.9594 38.3684C51.0405 38.251 50.2987 37.6957 49.9003 36.9492L46.4329 36.2923L44.2942 36.5539C43.8999 36.603 43.5557 36.851 43.3949 37.214C42.7551 38.6472 41.8721 39.9653 40.7819 41.1032C40.5111 41.3859 40.4094 41.7907 40.5077 42.1696L41.0393 44.2328L42.3514 46.2959C43.7949 46.0787 45.2969 46.7044 46.1301 48.0149C47.2502 49.7753 46.7422 52.1064 44.9988 53.2423C43.2563 54.3779 40.8852 53.8838 39.7432 52.1452C38.9435 50.9281 38.9348 49.4266 39.583 48.2355L38.1899 46.0458L36.4771 44.633C36.2234 44.4226 35.8779 44.3669 35.5683 44.4776C35.2248 44.6005 34.8745 44.7104 34.5163 44.8064C32.5699 45.3279 30.6073 45.3952 28.7407 45.0762C28.467 45.0301 28.1872 45.1083 27.9779 45.2902L27.0587 46.0911L26.3752 47.7792C26.8376 48.4979 26.9558 49.4207 26.6113 50.2724C26.0258 51.7177 24.3398 52.3871 22.9118 51.7031C21.6822 51.1143 21.0748 49.6676 21.5162 48.3772C21.7972 47.5553 22.4235 46.963 23.1707 46.6945L23.9279 44.8236L23.7873 43.1803C22.4217 42.3229 21.2064 41.2226 20.2127 39.9221L17.877 40.1533L15.6909 41.2371C15.7051 42.7073 14.9505 44.1062 13.6259 44.7832C11.7543 45.7391 9.45521 44.8929 8.49143 42.8921C7.52792 40.8924 8.2628 38.4963 10.1344 37.5404C11.5351 36.8249 13.1741 37.1184 14.3145 38.1503L16.3762 37.1275L17.807 35.5891C17.9005 35.4883 17.9351 35.3468 17.8996 35.2144L17.8991 35.2124C17.2378 32.7446 17.3053 30.2499 17.9687 27.9572C18.0044 27.8314 17.9776 27.6957 17.8932 27.5956L16.6588 26.1175L13.9993 24.7183C13.2668 25.0415 12.3984 25.0406 11.6347 24.6384C10.255 23.9117 9.75789 22.1678 10.5803 20.8147C11.3023 19.6283 12.8401 19.1778 14.0888 19.7861C14.8971 20.1796 15.4185 20.9155 15.5727 21.7296L18.2321 23.1287L20.1251 23.3073C20.2565 23.3201 20.3845 23.2645 20.468 23.1621C21.3265 22.0991 22.3486 21.1608 23.5096 20.391C23.8282 20.1788 24.0262 19.8271 24.0312 19.4439L24.0508 17.7215L23.3088 15.6891C21.7003 15.573 20.2452 14.5966 19.6686 13.0734C18.8759 10.9789 20.0428 8.64292 22.2747 7.85718Z" fill="#EC5863"/>
<path d="M40.709 29.1005C39.2729 23.741 33.7639 20.5604 28.4044 21.9965C23.0449 23.4326 19.8643 28.9415 21.3004 34.301C22.7365 39.6606 28.2454 42.8412 33.6049 41.4051C38.9645 39.969 42.145 34.4601 40.709 29.1005Z" fill="#F58A97"/>
<path d="M32.8124 38.4472C27.9555 39.7486 22.9763 37.259 21.0161 32.7921C21.0715 33.2941 21.1656 33.7982 21.3004 34.3011C22.7365 39.6607 28.2453 42.8412 33.6049 41.4051C38.9646 39.969 42.1451 34.4602 40.709 29.1005C40.5742 28.5977 40.4037 28.1141 40.2007 27.6516C40.7364 32.5001 37.6691 37.1459 32.8124 38.4472Z" fill="#F07281"/>
<path d="M17.7374 52.7561C17.3284 51.2299 15.7596 50.3241 14.2334 50.7331C12.7071 51.142 11.8014 52.7108 12.2103 54.2371C12.6193 55.7633 14.1881 56.6691 15.7143 56.2601C17.2406 55.8512 18.1463 54.2824 17.7374 52.7561Z" fill="#EB5569"/>
<path d="M53.4289 44.0022C53.1588 42.9941 52.1226 42.3959 51.1145 42.666C50.1064 42.9361 49.5081 43.9723 49.7782 44.9804C50.0484 45.9885 51.0846 46.5868 52.0927 46.3166C53.1008 46.0465 53.699 45.0103 53.4289 44.0022Z" fill="#EB5569"/>
<path d="M48.3106 9.45334C47.9127 7.96847 46.3864 7.08729 44.9016 7.48516C43.4167 7.88302 42.5355 9.40928 42.9334 10.8941C43.3313 12.379 44.8575 13.2602 46.3424 12.8623C47.8273 12.4645 48.7084 10.9382 48.3106 9.45334Z" fill="#EB5569"/>
<path d="M31.6331 34.7251C31.2622 33.3407 29.8393 32.5192 28.4549 32.8901C27.0706 33.261 26.2491 34.684 26.62 36.0683C26.9909 37.4527 28.4139 38.2742 29.7982 37.9033C31.1825 37.5323 32.0041 36.1094 31.6331 34.7251Z" fill="#EB5569"/>
<path d="M38.0791 30.8413C37.8266 29.899 36.8581 29.3399 35.9158 29.5923C34.9736 29.8448 34.4144 30.8133 34.6669 31.7556C34.9193 32.6979 35.8879 33.257 36.8301 33.0046C37.7724 32.7521 38.3316 31.7836 38.0791 30.8413Z" fill="#EB5569"/>
<path d="M31.2607 26.9263C31.0487 26.1351 30.2354 25.6655 29.4442 25.8775C28.653 26.0896 28.1834 26.9028 28.3954 27.6941C28.6074 28.4853 29.4207 28.9549 30.212 28.7429C31.0032 28.5308 31.4727 27.7175 31.2607 26.9263Z" fill="#EB5569"/>
</svg>
