<svg width="39" height="39" viewBox="0 0 39 39" fill="none" xmlns="http://www.w3.org/2000/svg">
<path d="M27.625 3.25H11.375C6.88769 3.25 3.25 6.88769 3.25 11.375V27.625C3.25 32.1123 6.88769 35.75 11.375 35.75H27.625C32.1123 35.75 35.75 32.1123 35.75 27.625V11.375C35.75 6.88769 32.1123 3.25 27.625 3.25Z" stroke="#6B36F7" stroke-width="5" stroke-linecap="round" stroke-linejoin="round"/>
<path d="M26 18.4763C26.2006 19.8287 25.9696 21.2099 25.3399 22.4234C24.7102 23.6369 23.7139 24.621 22.4927 25.2357C21.2714 25.8504 19.8875 26.0643 18.5377 25.8471C17.1878 25.6299 15.9409 24.9926 14.9741 24.0259C14.0074 23.0591 13.3701 21.8122 13.1529 20.4623C12.9357 19.1125 13.1496 17.7286 13.7643 16.5074C14.379 15.2861 15.3631 14.2898 16.5766 13.6601C17.7902 13.0305 19.1714 12.7995 20.5238 13C21.9033 13.2046 23.1804 13.8474 24.1665 14.8335C25.1526 15.8196 25.7955 17.0968 26 18.4763Z" stroke="#6B36F7" stroke-width="5" stroke-linecap="round" stroke-linejoin="round"/>
<path d="M28.4375 10.5625H28.4537" stroke="#6B36F7" stroke-width="5" stroke-linecap="round" stroke-linejoin="round"/>
</svg>
