<svg width="39" height="39" viewBox="0 0 39 39" fill="none" xmlns="http://www.w3.org/2000/svg">
<g clip-path="url(#clip0)">
<path d="M38.9902 39.0001V38.9985H39V24.6952C39 17.698 37.4936 12.3079 29.3134 12.3079C25.3809 12.3079 22.7419 14.4659 21.6645 16.5117H21.5507V12.9611H13.7946V38.9985H21.8709V26.1057C21.8709 22.7111 22.5144 19.4286 26.7182 19.4286C30.8604 19.4286 30.9221 23.3026 30.9221 26.3235V39.0001H38.9902Z" fill="#6B36F7"/>
<path d="M0.643494 12.9626H8.72949V39H0.643494V12.9626Z" fill="#6B36F7"/>
<path d="M4.68325 0C2.09787 0 0 2.09788 0 4.68325C0 7.26863 2.09787 9.41038 4.68325 9.41038C7.26862 9.41038 9.3665 7.26863 9.3665 4.68325C9.36487 2.09788 7.267 0 4.68325 0V0Z" fill="#6B36F7"/>
</g>
<defs>
<clipPath id="clip0">
<rect width="39" height="39" fill="white"/>
</clipPath>
</defs>
</svg>
