<svg width="26" height="21" viewBox="0 0 26 21" fill="none" xmlns="http://www.w3.org/2000/svg">
<path d="M7.15 0C5.2537 0 3.43507 0.729758 2.09419 2.02874C0.753302 3.32771 0 5.08951 0 6.92654C0 7.55622 0.117 8.18591 0.286 8.81559H5.59L7.241 4.57151C7.631 3.56402 9.165 3.46327 9.659 4.57151L12.35 11.3343L13.117 9.54603C13.286 9.13043 13.741 8.81559 14.3 8.81559H25.714C25.883 8.18591 26 7.55622 26 6.92654C26 5.08951 25.2467 3.32771 23.9058 2.02874C22.5649 0.729758 20.7463 0 18.85 0C16.432 0 14.3 1.17121 13 2.94693C11.7 1.17121 9.568 0 7.15 0ZM1.3 10.7046C0.955219 10.7046 0.624558 10.8373 0.380761 11.0735C0.136964 11.3097 0 11.63 0 11.964C0 12.298 0.136964 12.6183 0.380761 12.8545C0.624558 13.0907 0.955219 13.2234 1.3 13.2234H4.472L11.7 20.1499C13 21.2834 13 21.2834 14.3 20.1499L21.528 13.2234H24.7C25.0448 13.2234 25.3754 13.0907 25.6192 12.8545C25.863 12.6183 26 12.298 26 11.964C26 11.63 25.863 11.3097 25.6192 11.0735C25.3754 10.8373 25.0448 10.7046 24.7 10.7046H14.82L13.611 13.6012C13.091 14.8732 11.596 14.6969 11.115 13.639L8.45 6.92654L7.202 9.86087C7.007 10.3394 6.565 10.7046 5.98 10.7046H1.3Z" fill="#EC5863"/>
</svg>
