<svg width="63" height="51" viewBox="0 0 63 51" fill="none" xmlns="http://www.w3.org/2000/svg">
<path d="M17.325 0C12.7301 0 8.32344 1.76826 5.07438 4.91578C1.82531 8.06331 0 12.3323 0 16.7835C0 18.3093 0.2835 19.8351 0.693 21.3609H13.545L17.5455 11.0771C18.4905 8.63589 22.2075 8.39177 23.4045 11.0771L29.925 27.464L31.7835 23.1308C32.193 22.1237 33.2955 21.3609 34.65 21.3609H62.307C62.7165 19.8351 63 18.3093 63 16.7835C63 12.3323 61.1747 8.06331 57.9256 4.91578C54.6766 1.76826 50.2699 0 45.675 0C39.816 0 34.65 2.83794 31.5 7.14063C28.35 2.83794 23.184 0 17.325 0ZM3.15 25.9382C2.31457 25.9382 1.51335 26.2597 0.922614 26.832C0.331874 27.4042 0 28.1804 0 28.9897C0 29.7991 0.331874 30.5752 0.922614 31.1475C1.51335 31.7198 2.31457 32.0413 3.15 32.0413H10.836L28.35 48.8248C31.5 51.5712 31.5 51.5712 34.65 48.8248L52.164 32.0413H59.85C60.6854 32.0413 61.4867 31.7198 62.0774 31.1475C62.6681 30.5752 63 29.7991 63 28.9897C63 28.1804 62.6681 27.4042 62.0774 26.832C61.4867 26.2597 60.6854 25.9382 59.85 25.9382H35.91L32.9805 32.9568C31.7205 36.0388 28.098 35.6116 26.9325 33.0483L20.475 16.7835L17.451 23.8936C16.9785 25.0532 15.9075 25.9382 14.49 25.9382H3.15Z" fill="#EC5863"/>
</svg>
