<svg width="43" height="35" viewBox="0 0 43 35" fill="none" xmlns="http://www.w3.org/2000/svg">
<path d="M11.825 0C8.68882 0 5.68108 1.21626 3.46346 3.38123C1.24585 5.54619 0 8.48251 0 11.5442C0 12.5937 0.1935 13.6432 0.473 14.6927H9.245L11.9755 7.61919C12.6205 5.94003 15.1575 5.77211 15.9745 7.61919L20.425 18.8906L21.6935 15.91C21.973 15.2174 22.7255 14.6927 23.65 14.6927H42.527C42.8065 13.6432 43 12.5937 43 11.5442C43 8.48251 41.7542 5.54619 39.5365 3.38123C37.3189 1.21626 34.3112 0 31.175 0C27.176 0 23.65 1.95202 21.5 4.91154C19.35 1.95202 15.824 0 11.825 0ZM2.15 17.8411C1.57978 17.8411 1.03292 18.0622 0.62972 18.4558C0.226517 18.8495 0 19.3834 0 19.94C0 20.4967 0.226517 21.0306 0.62972 21.4242C1.03292 21.8178 1.57978 22.039 2.15 22.039H7.396L19.35 33.5832C21.5 35.4723 21.5 35.4723 23.65 33.5832L35.604 22.039H40.85C41.4202 22.039 41.9671 21.8178 42.3703 21.4242C42.7735 21.0306 43 20.4967 43 19.94C43 19.3834 42.7735 18.8495 42.3703 18.4558C41.9671 18.0622 41.4202 17.8411 40.85 17.8411H24.51L22.5105 22.6687C21.6505 24.7886 19.178 24.4948 18.3825 22.7316L13.975 11.5442L11.911 16.4348C11.5885 17.2324 10.8575 17.8411 9.89 17.8411H2.15Z" fill="#EC5863"/>
</svg>
