<svg width="31" height="34" viewBox="0 0 31 34" fill="none" xmlns="http://www.w3.org/2000/svg">
<path d="M15.5 0.331543C12.7875 0.331543 11.1639 0.735559 10.1318 1.23932C9.61517 1.49183 9.24833 1.75696 9.00162 2.02841C8.75362 2.29986 8.59733 2.69883 8.59733 2.69883C8.55683 2.80022 8.52991 2.90632 8.51725 3.01446L7.83008 11.6554C7.82104 11.7084 7.83912 11.7942 7.83008 11.8523L7.75 12.721C7.74248 12.7995 7.74248 12.8785 7.75 12.9571C7.75 17.1235 11.2375 20.5324 15.5 20.5324C19.7625 20.5324 23.25 17.1235 23.25 12.9571V12.7601C23.2502 12.747 23.2502 12.734 23.25 12.721L22.4827 3.01446C22.4701 2.90632 22.4432 2.80022 22.4027 2.69883C22.4027 2.69883 22.2464 2.29986 21.9984 2.02841C21.7517 1.7557 21.3848 1.49056 20.8682 1.23932C19.8361 0.734297 18.2125 0.331543 15.5 0.331543ZM15.5 20.5324C6.975 20.5324 0 24.4538 0 27.989V33.1579H31V27.989C31 24.6306 24.6941 20.9313 16.7516 20.5715C16.335 20.5446 15.9175 20.5316 15.5 20.5324ZM15.5 2.85664C17.9542 2.85664 19.18 3.23541 19.6979 3.48792C19.871 3.57251 19.8917 3.60534 19.9407 3.64574L20.4652 10.1163C19.2768 10.187 17.6571 10.432 15.5 10.432C13.3429 10.432 11.7245 10.187 10.5348 10.1163L11.0592 3.64574C11.107 3.60534 11.129 3.57251 11.3021 3.48792C11.82 3.23541 13.0458 2.85664 15.5 2.85664ZM14.4499 4.1192V5.61911H12.9167V7.67075H14.4512V9.1694H16.5488V7.66949H18.0833V5.61911H16.5488V4.1192H14.4512H14.4499ZM11.625 23.3731L14.9355 30.6328H2.58333V27.989C2.58333 27.0484 5.87708 24.2935 11.625 23.3731ZM19.375 23.3731C25.1229 24.2948 28.4167 27.0484 28.4167 27.989V30.6328H16.0645L19.375 23.3731Z" fill="#EC5863"/>
</svg>
